<?xml version='1.0' encoding='UTF-8' standalone='no'?>
<!-- Created with Fritzing (http://www.fritzing.org/) -->
<svg xmlns="http://www.w3.org/2000/svg"  viewBox="0 0 219.685 97.7954" version="1.2" height="1.35827in" baseProfile="tiny" width="3.05118in" y="0in" x="0in">
 <desc >Fritzing footprint generated by brd2svg</desc>
 <g  id="silkscreen">
  <path  stroke-width="0.576" fill="none" d="M0.288,7.59607L219.397,7.33284L219.397,97.5074L0.288,97.5074L0.288,7.59607" stroke="white"/>
  <g >
   <title >element:ANALOG_EXPANDER</title>
   <g >
    <title >package:1X09-BIG</title>
    <line  stroke-linecap="round" stroke-width="0.36" x1="63.2693" x2="128.069" y2="86.4" stroke="white" y1="86.4"/>
    <line  stroke-linecap="round" stroke-width="0.36" x1="128.069" x2="128.069" y2="93.6" stroke="white" y1="86.4"/>
    <line  stroke-linecap="round" stroke-width="0.36" x1="128.069" x2="63.2693" y2="93.6" stroke="white" y1="93.6"/>
    <line  stroke-linecap="round" stroke-width="0.36" x1="63.2693" x2="63.2693" y2="86.4" stroke="white" y1="93.6"/>
   </g>
  </g>
  <g >
   <title >element:J1</title>
   <g >
    <title >package:SJ-3524-SMT-TR</title>
    <line  stroke-linecap="round" stroke-width="0.72" x1="207.071" x2="207.071" y2="0" stroke="white" y1="7.08661"/>
    <line  stroke-linecap="round" stroke-width="0.72" x1="207.071" x2="196.866" y2="0" stroke="white" y1="0"/>
    <line  stroke-linecap="round" stroke-width="0.72" x1="196.866" x2="196.866" y2="7.08661" stroke="white" y1="0"/>
    <line  stroke-linecap="round" stroke-width="0.72" x1="196.866" x2="207.071" y2="7.08661" stroke="white" y1="7.08661"/>
    <line  stroke-linecap="round" stroke-width="0.72" x1="207.071" x2="210.473" y2="7.08661" stroke="white" y1="7.08661"/>
    <line  stroke-linecap="round" stroke-width="0.72" x1="196.866" x2="193.465" y2="7.08661" stroke="white" y1="7.08661"/>
    <line  stroke-linecap="round" stroke-width="0.72" x1="210.473" x2="210.473" y2="23.3858" stroke="white" y1="48.189"/>
    <line  stroke-linecap="round" stroke-width="0.72" x1="193.465" x2="199.474" y2="48.189" stroke="white" y1="48.189"/>
    <line  stroke-linecap="round" stroke-width="0.72" x1="193.465" x2="193.465" y2="45.1814" stroke="white" y1="48.189"/>
    <line  stroke-linecap="round" stroke-width="0.72" x1="193.465" x2="193.465" y2="35.9093" stroke="white" y1="17.6457"/>
    <line  stroke-linecap="round" stroke-width="0.72" x1="210.473" x2="210.473" y2="15.7607" stroke="white" y1="7.08661"/>
    <line  stroke-linecap="round" stroke-width="0.72" x1="193.465" x2="193.465" y2="10.0999" stroke="white" y1="7.08661"/>
   </g>
  </g>
  <g >
   <title >element:J2</title>
   <g >
    <title >package:SJ-3524-SMT-TR</title>
    <line  stroke-linecap="round" stroke-width="0.72" x1="170.22" x2="170.22" y2="0" stroke="white" y1="7.08661"/>
    <line  stroke-linecap="round" stroke-width="0.72" x1="170.22" x2="160.016" y2="0" stroke="white" y1="0"/>
    <line  stroke-linecap="round" stroke-width="0.72" x1="160.016" x2="160.016" y2="7.08661" stroke="white" y1="0"/>
    <line  stroke-linecap="round" stroke-width="0.72" x1="160.016" x2="170.22" y2="7.08661" stroke="white" y1="7.08661"/>
    <line  stroke-linecap="round" stroke-width="0.72" x1="170.22" x2="173.622" y2="7.08661" stroke="white" y1="7.08661"/>
    <line  stroke-linecap="round" stroke-width="0.72" x1="160.016" x2="156.614" y2="7.08661" stroke="white" y1="7.08661"/>
    <line  stroke-linecap="round" stroke-width="0.72" x1="173.622" x2="173.622" y2="23.3858" stroke="white" y1="48.189"/>
    <line  stroke-linecap="round" stroke-width="0.72" x1="156.614" x2="162.624" y2="48.189" stroke="white" y1="48.189"/>
    <line  stroke-linecap="round" stroke-width="0.72" x1="156.614" x2="156.614" y2="45.1814" stroke="white" y1="48.189"/>
    <line  stroke-linecap="round" stroke-width="0.72" x1="156.614" x2="156.614" y2="35.9093" stroke="white" y1="17.6457"/>
    <line  stroke-linecap="round" stroke-width="0.72" x1="173.622" x2="173.622" y2="15.7607" stroke="white" y1="7.08661"/>
    <line  stroke-linecap="round" stroke-width="0.72" x1="156.614" x2="156.614" y2="10.0999" stroke="white" y1="7.08661"/>
   </g>
  </g>
  <g >
   <title >element:J3</title>
   <g >
    <title >package:SJ-3524-SMT-TR</title>
    <line  stroke-linecap="round" stroke-width="0.72" x1="22.8189" x2="22.8189" y2="0" stroke="white" y1="7.08661"/>
    <line  stroke-linecap="round" stroke-width="0.72" x1="22.8189" x2="12.6142" y2="0" stroke="white" y1="0"/>
    <line  stroke-linecap="round" stroke-width="0.72" x1="12.6142" x2="12.6142" y2="7.08661" stroke="white" y1="0"/>
    <line  stroke-linecap="round" stroke-width="0.72" x1="12.6142" x2="22.8189" y2="7.08661" stroke="white" y1="7.08661"/>
    <line  stroke-linecap="round" stroke-width="0.72" x1="22.8189" x2="26.2205" y2="7.08661" stroke="white" y1="7.08661"/>
    <line  stroke-linecap="round" stroke-width="0.72" x1="12.6142" x2="9.21262" y2="7.08661" stroke="white" y1="7.08661"/>
    <line  stroke-linecap="round" stroke-width="0.72" x1="26.2205" x2="26.2205" y2="23.3858" stroke="white" y1="48.189"/>
    <line  stroke-linecap="round" stroke-width="0.72" x1="9.21262" x2="15.222" y2="48.189" stroke="white" y1="48.189"/>
    <line  stroke-linecap="round" stroke-width="0.72" x1="9.21262" x2="9.21262" y2="45.1814" stroke="white" y1="48.189"/>
    <line  stroke-linecap="round" stroke-width="0.72" x1="9.21262" x2="9.21262" y2="35.9093" stroke="white" y1="17.6457"/>
    <line  stroke-linecap="round" stroke-width="0.72" x1="26.2205" x2="26.2205" y2="15.7607" stroke="white" y1="7.08661"/>
    <line  stroke-linecap="round" stroke-width="0.72" x1="9.21262" x2="9.21262" y2="10.0999" stroke="white" y1="7.08661"/>
   </g>
  </g>
  <g >
   <title >element:J4</title>
   <g >
    <title >package:SJ-3524-SMT-TR</title>
    <line  stroke-linecap="round" stroke-width="0.72" x1="133.37" x2="133.37" y2="0" stroke="white" y1="7.08661"/>
    <line  stroke-linecap="round" stroke-width="0.72" x1="133.37" x2="123.165" y2="0" stroke="white" y1="0"/>
    <line  stroke-linecap="round" stroke-width="0.72" x1="123.165" x2="123.165" y2="7.08661" stroke="white" y1="0"/>
    <line  stroke-linecap="round" stroke-width="0.72" x1="123.165" x2="133.37" y2="7.08661" stroke="white" y1="7.08661"/>
    <line  stroke-linecap="round" stroke-width="0.72" x1="133.37" x2="136.772" y2="7.08661" stroke="white" y1="7.08661"/>
    <line  stroke-linecap="round" stroke-width="0.72" x1="123.165" x2="119.764" y2="7.08661" stroke="white" y1="7.08661"/>
    <line  stroke-linecap="round" stroke-width="0.72" x1="136.772" x2="136.772" y2="23.3858" stroke="white" y1="48.189"/>
    <line  stroke-linecap="round" stroke-width="0.72" x1="119.764" x2="125.773" y2="48.189" stroke="white" y1="48.189"/>
    <line  stroke-linecap="round" stroke-width="0.72" x1="119.764" x2="119.764" y2="45.1814" stroke="white" y1="48.189"/>
    <line  stroke-linecap="round" stroke-width="0.72" x1="119.764" x2="119.764" y2="35.9093" stroke="white" y1="17.6457"/>
    <line  stroke-linecap="round" stroke-width="0.72" x1="136.772" x2="136.772" y2="15.7607" stroke="white" y1="7.08661"/>
    <line  stroke-linecap="round" stroke-width="0.72" x1="119.764" x2="119.764" y2="10.0999" stroke="white" y1="7.08661"/>
   </g>
  </g>
  <g >
   <title >element:J7</title>
   <g >
    <title >package:SJ-3524-SMT-TR</title>
    <line  stroke-linecap="round" stroke-width="0.72" x1="96.5196" x2="96.5196" y2="0" stroke="white" y1="7.08661"/>
    <line  stroke-linecap="round" stroke-width="0.72" x1="96.5196" x2="86.315" y2="0" stroke="white" y1="0"/>
    <line  stroke-linecap="round" stroke-width="0.72" x1="86.315" x2="86.315" y2="7.08661" stroke="white" y1="0"/>
    <line  stroke-linecap="round" stroke-width="0.72" x1="86.315" x2="96.5196" y2="7.08661" stroke="white" y1="7.08661"/>
    <line  stroke-linecap="round" stroke-width="0.72" x1="96.5196" x2="99.9216" y2="7.08661" stroke="white" y1="7.08661"/>
    <line  stroke-linecap="round" stroke-width="0.72" x1="86.315" x2="82.913" y2="7.08661" stroke="white" y1="7.08661"/>
    <line  stroke-linecap="round" stroke-width="0.72" x1="99.9216" x2="99.9216" y2="23.3858" stroke="white" y1="48.189"/>
    <line  stroke-linecap="round" stroke-width="0.72" x1="82.913" x2="88.9229" y2="48.189" stroke="white" y1="48.189"/>
    <line  stroke-linecap="round" stroke-width="0.72" x1="82.913" x2="82.913" y2="45.1814" stroke="white" y1="48.189"/>
    <line  stroke-linecap="round" stroke-width="0.72" x1="82.913" x2="82.913" y2="35.9093" stroke="white" y1="17.6457"/>
    <line  stroke-linecap="round" stroke-width="0.72" x1="99.9216" x2="99.9216" y2="15.7607" stroke="white" y1="7.08661"/>
    <line  stroke-linecap="round" stroke-width="0.72" x1="82.913" x2="82.913" y2="10.0999" stroke="white" y1="7.08661"/>
   </g>
  </g>
  <g >
   <title >element:J8</title>
   <g >
    <title >package:SJ-3524-SMT-TR</title>
    <line  stroke-linecap="round" stroke-width="0.72" x1="59.6693" x2="59.6693" y2="0" stroke="white" y1="7.08661"/>
    <line  stroke-linecap="round" stroke-width="0.72" x1="59.6693" x2="49.4646" y2="0" stroke="white" y1="0"/>
    <line  stroke-linecap="round" stroke-width="0.72" x1="49.4646" x2="49.4646" y2="7.08661" stroke="white" y1="0"/>
    <line  stroke-linecap="round" stroke-width="0.72" x1="49.4646" x2="59.6693" y2="7.08661" stroke="white" y1="7.08661"/>
    <line  stroke-linecap="round" stroke-width="0.72" x1="59.6693" x2="63.0708" y2="7.08661" stroke="white" y1="7.08661"/>
    <line  stroke-linecap="round" stroke-width="0.72" x1="49.4646" x2="46.063" y2="7.08661" stroke="white" y1="7.08661"/>
    <line  stroke-linecap="round" stroke-width="0.72" x1="63.0708" x2="63.0708" y2="23.3858" stroke="white" y1="48.189"/>
    <line  stroke-linecap="round" stroke-width="0.72" x1="46.063" x2="52.0724" y2="48.189" stroke="white" y1="48.189"/>
    <line  stroke-linecap="round" stroke-width="0.72" x1="46.063" x2="46.063" y2="45.1814" stroke="white" y1="48.189"/>
    <line  stroke-linecap="round" stroke-width="0.72" x1="46.063" x2="46.063" y2="35.9093" stroke="white" y1="17.6457"/>
    <line  stroke-linecap="round" stroke-width="0.72" x1="63.0708" x2="63.0708" y2="15.7607" stroke="white" y1="7.08661"/>
    <line  stroke-linecap="round" stroke-width="0.72" x1="46.063" x2="46.063" y2="10.0999" stroke="white" y1="7.08661"/>
   </g>
  </g>
  <g >
   <title >element:R6</title>
   <g >
    <title >package:0204/7</title>
    <path  stroke-width="0.432" fill="none" d="M169.685,63.9382A0.72,0.72,0,0,0,170.405,63.2182" stroke="white"/>
    <path  stroke-width="0.432" fill="none" d="M170.405,58.8982A0.72,0.72,0,0,0,169.685,58.1782" stroke="white"/>
    <path  stroke-width="0.432" fill="none" d="M156.725,58.1782A0.72,0.72,0,0,0,156.005,58.8982" stroke="white"/>
    <path  stroke-width="0.432" fill="none" d="M156.005,63.2182A0.72,0.72,0,0,0,156.725,63.9382" stroke="white"/>
    <line  stroke-linecap="round" stroke-width="0.432" x1="170.405" x2="170.405" y2="63.2182" stroke="white" y1="58.8982"/>
    <line  stroke-linecap="round" stroke-width="0.432" x1="169.685" x2="168.605" y2="63.9382" stroke="white" y1="63.9382"/>
    <line  stroke-linecap="round" stroke-width="0.432" x1="168.245" x2="168.605" y2="63.9382" stroke="white" y1="63.5782"/>
    <line  stroke-linecap="round" stroke-width="0.432" x1="169.685" x2="168.605" y2="58.1782" stroke="white" y1="58.1782"/>
    <line  stroke-linecap="round" stroke-width="0.432" x1="168.245" x2="168.605" y2="58.1782" stroke="white" y1="58.5382"/>
    <line  stroke-linecap="round" stroke-width="0.432" x1="158.165" x2="157.805" y2="63.9382" stroke="white" y1="63.5782"/>
    <line  stroke-linecap="round" stroke-width="0.432" x1="158.165" x2="168.245" y2="63.5782" stroke="white" y1="63.5782"/>
    <line  stroke-linecap="round" stroke-width="0.432" x1="158.165" x2="157.805" y2="58.1782" stroke="white" y1="58.5382"/>
    <line  stroke-linecap="round" stroke-width="0.432" x1="158.165" x2="168.245" y2="58.5382" stroke="white" y1="58.5382"/>
    <line  stroke-linecap="round" stroke-width="0.432" x1="156.725" x2="157.805" y2="63.9382" stroke="white" y1="63.9382"/>
    <line  stroke-linecap="round" stroke-width="0.432" x1="156.725" x2="157.805" y2="58.1782" stroke="white" y1="58.1782"/>
    <line  stroke-linecap="round" stroke-width="0.432" x1="156.005" x2="156.005" y2="63.2182" stroke="white" y1="58.8982"/>
    <g  transform="matrix(-1, 0, 0, -1, 155.465, 61.0582)">
     <rect  height="1.44" width="1.08" stroke-width="0" y="-0.72" x="-0.54" fill="white" stroke="none"/>
    </g>
    <g  transform="matrix(-1, 0, 0, -1, 170.945, 61.0582)">
     <rect  height="1.44" width="1.08" stroke-width="0" y="-0.72" x="-0.54" fill="white" stroke="none"/>
    </g>
   </g>
  </g>
  <g >
   <title >element:R11</title>
   <g >
    <title >package:0204/7</title>
    <path  stroke-width="0.432" fill="none" d="M133.685,63.9382A0.72,0.72,0,0,0,134.405,63.2182" stroke="white"/>
    <path  stroke-width="0.432" fill="none" d="M134.405,58.8982A0.72,0.72,0,0,0,133.685,58.1782" stroke="white"/>
    <path  stroke-width="0.432" fill="none" d="M120.725,58.1782A0.72,0.72,0,0,0,120.005,58.8982" stroke="white"/>
    <path  stroke-width="0.432" fill="none" d="M120.005,63.2182A0.72,0.72,0,0,0,120.725,63.9382" stroke="white"/>
    <line  stroke-linecap="round" stroke-width="0.432" x1="134.405" x2="134.405" y2="63.2182" stroke="white" y1="58.8982"/>
    <line  stroke-linecap="round" stroke-width="0.432" x1="133.685" x2="132.605" y2="63.9382" stroke="white" y1="63.9382"/>
    <line  stroke-linecap="round" stroke-width="0.432" x1="132.245" x2="132.605" y2="63.9382" stroke="white" y1="63.5782"/>
    <line  stroke-linecap="round" stroke-width="0.432" x1="133.685" x2="132.605" y2="58.1782" stroke="white" y1="58.1782"/>
    <line  stroke-linecap="round" stroke-width="0.432" x1="132.245" x2="132.605" y2="58.1782" stroke="white" y1="58.5382"/>
    <line  stroke-linecap="round" stroke-width="0.432" x1="122.165" x2="121.805" y2="63.9382" stroke="white" y1="63.5782"/>
    <line  stroke-linecap="round" stroke-width="0.432" x1="122.165" x2="132.245" y2="63.5782" stroke="white" y1="63.5782"/>
    <line  stroke-linecap="round" stroke-width="0.432" x1="122.165" x2="121.805" y2="58.1782" stroke="white" y1="58.5382"/>
    <line  stroke-linecap="round" stroke-width="0.432" x1="122.165" x2="132.245" y2="58.5382" stroke="white" y1="58.5382"/>
    <line  stroke-linecap="round" stroke-width="0.432" x1="120.725" x2="121.805" y2="63.9382" stroke="white" y1="63.9382"/>
    <line  stroke-linecap="round" stroke-width="0.432" x1="120.725" x2="121.805" y2="58.1782" stroke="white" y1="58.1782"/>
    <line  stroke-linecap="round" stroke-width="0.432" x1="120.005" x2="120.005" y2="63.2182" stroke="white" y1="58.8982"/>
    <g  transform="matrix(-1, 0, 0, -1, 119.465, 61.0582)">
     <rect  height="1.44" width="1.08" stroke-width="0" y="-0.72" x="-0.54" fill="white" stroke="none"/>
    </g>
    <g  transform="matrix(-1, 0, 0, -1, 134.945, 61.0582)">
     <rect  height="1.44" width="1.08" stroke-width="0" y="-0.72" x="-0.54" fill="white" stroke="none"/>
    </g>
   </g>
  </g>
  <g >
   <title >element:R16</title>
   <g >
    <title >package:0204/7</title>
    <path  stroke-width="0.432" fill="none" d="M97.6846,63.9382A0.72,0.72,0,0,0,98.4046,63.2182" stroke="white"/>
    <path  stroke-width="0.432" fill="none" d="M98.4046,58.8982A0.72,0.72,0,0,0,97.6846,58.1782" stroke="white"/>
    <path  stroke-width="0.432" fill="none" d="M84.7246,58.1782A0.72,0.72,0,0,0,84.0046,58.8982" stroke="white"/>
    <path  stroke-width="0.432" fill="none" d="M84.0046,63.2182A0.72,0.72,0,0,0,84.7246,63.9382" stroke="white"/>
    <line  stroke-linecap="round" stroke-width="0.432" x1="98.4046" x2="98.4046" y2="63.2182" stroke="white" y1="58.8982"/>
    <line  stroke-linecap="round" stroke-width="0.432" x1="97.6846" x2="96.6046" y2="63.9382" stroke="white" y1="63.9382"/>
    <line  stroke-linecap="round" stroke-width="0.432" x1="96.2446" x2="96.6046" y2="63.9382" stroke="white" y1="63.5782"/>
    <line  stroke-linecap="round" stroke-width="0.432" x1="97.6846" x2="96.6046" y2="58.1782" stroke="white" y1="58.1782"/>
    <line  stroke-linecap="round" stroke-width="0.432" x1="96.2446" x2="96.6046" y2="58.1782" stroke="white" y1="58.5382"/>
    <line  stroke-linecap="round" stroke-width="0.432" x1="86.1646" x2="85.8046" y2="63.9382" stroke="white" y1="63.5782"/>
    <line  stroke-linecap="round" stroke-width="0.432" x1="86.1646" x2="96.2446" y2="63.5782" stroke="white" y1="63.5782"/>
    <line  stroke-linecap="round" stroke-width="0.432" x1="86.1646" x2="85.8046" y2="58.1782" stroke="white" y1="58.5382"/>
    <line  stroke-linecap="round" stroke-width="0.432" x1="86.1646" x2="96.2446" y2="58.5382" stroke="white" y1="58.5382"/>
    <line  stroke-linecap="round" stroke-width="0.432" x1="84.7246" x2="85.8046" y2="63.9382" stroke="white" y1="63.9382"/>
    <line  stroke-linecap="round" stroke-width="0.432" x1="84.7246" x2="85.8046" y2="58.1782" stroke="white" y1="58.1782"/>
    <line  stroke-linecap="round" stroke-width="0.432" x1="84.0046" x2="84.0046" y2="63.2182" stroke="white" y1="58.8982"/>
    <g  transform="matrix(-1, 0, 0, -1, 83.4646, 61.0582)">
     <rect  height="1.44" width="1.08" stroke-width="0" y="-0.72" x="-0.54" fill="white" stroke="none"/>
    </g>
    <g  transform="matrix(-1, 0, 0, -1, 98.9446, 61.0582)">
     <rect  height="1.44" width="1.08" stroke-width="0" y="-0.72" x="-0.54" fill="white" stroke="none"/>
    </g>
   </g>
  </g>
  <g >
   <title >element:R21</title>
   <g >
    <title >package:0204/7</title>
    <path  stroke-width="0.432" fill="none" d="M59.8847,63.9382A0.72,0.72,0,0,0,60.6047,63.2182" stroke="white"/>
    <path  stroke-width="0.432" fill="none" d="M60.6047,58.8982A0.72,0.72,0,0,0,59.8847,58.1782" stroke="white"/>
    <path  stroke-width="0.432" fill="none" d="M46.9247,58.1782A0.72,0.72,0,0,0,46.2047,58.8982" stroke="white"/>
    <path  stroke-width="0.432" fill="none" d="M46.2047,63.2182A0.72,0.72,0,0,0,46.9247,63.9382" stroke="white"/>
    <line  stroke-linecap="round" stroke-width="0.432" x1="60.6047" x2="60.6047" y2="63.2182" stroke="white" y1="58.8982"/>
    <line  stroke-linecap="round" stroke-width="0.432" x1="59.8847" x2="58.8047" y2="63.9382" stroke="white" y1="63.9382"/>
    <line  stroke-linecap="round" stroke-width="0.432" x1="58.4447" x2="58.8047" y2="63.9382" stroke="white" y1="63.5782"/>
    <line  stroke-linecap="round" stroke-width="0.432" x1="59.8847" x2="58.8047" y2="58.1782" stroke="white" y1="58.1782"/>
    <line  stroke-linecap="round" stroke-width="0.432" x1="58.4447" x2="58.8047" y2="58.1782" stroke="white" y1="58.5382"/>
    <line  stroke-linecap="round" stroke-width="0.432" x1="48.3647" x2="48.0047" y2="63.9382" stroke="white" y1="63.5782"/>
    <line  stroke-linecap="round" stroke-width="0.432" x1="48.3647" x2="58.4447" y2="63.5782" stroke="white" y1="63.5782"/>
    <line  stroke-linecap="round" stroke-width="0.432" x1="48.3647" x2="48.0047" y2="58.1782" stroke="white" y1="58.5382"/>
    <line  stroke-linecap="round" stroke-width="0.432" x1="48.3647" x2="58.4447" y2="58.5382" stroke="white" y1="58.5382"/>
    <line  stroke-linecap="round" stroke-width="0.432" x1="46.9247" x2="48.0047" y2="63.9382" stroke="white" y1="63.9382"/>
    <line  stroke-linecap="round" stroke-width="0.432" x1="46.9247" x2="48.0047" y2="58.1782" stroke="white" y1="58.1782"/>
    <line  stroke-linecap="round" stroke-width="0.432" x1="46.2047" x2="46.2047" y2="63.2182" stroke="white" y1="58.8982"/>
    <g  transform="matrix(-1, 0, 0, -1, 45.6647, 61.0582)">
     <rect  height="1.44" width="1.08" stroke-width="0" y="-0.72" x="-0.54" fill="white" stroke="none"/>
    </g>
    <g  transform="matrix(-1, 0, 0, -1, 61.1447, 61.0582)">
     <rect  height="1.44" width="1.08" stroke-width="0" y="-0.72" x="-0.54" fill="white" stroke="none"/>
    </g>
   </g>
  </g>
  <g >
   <title >element:R26</title>
   <g >
    <title >package:0204/7</title>
    <path  stroke-width="0.432" fill="none" d="M23.8847,63.9382A0.72,0.72,0,0,0,24.6047,63.2182" stroke="white"/>
    <path  stroke-width="0.432" fill="none" d="M24.6047,58.8982A0.72,0.72,0,0,0,23.8847,58.1782" stroke="white"/>
    <path  stroke-width="0.432" fill="none" d="M10.9247,58.1782A0.72,0.72,0,0,0,10.2047,58.8982" stroke="white"/>
    <path  stroke-width="0.432" fill="none" d="M10.2047,63.2182A0.72,0.72,0,0,0,10.9247,63.9382" stroke="white"/>
    <line  stroke-linecap="round" stroke-width="0.432" x1="24.6047" x2="24.6047" y2="63.2182" stroke="white" y1="58.8982"/>
    <line  stroke-linecap="round" stroke-width="0.432" x1="23.8847" x2="22.8047" y2="63.9382" stroke="white" y1="63.9382"/>
    <line  stroke-linecap="round" stroke-width="0.432" x1="22.4447" x2="22.8047" y2="63.9382" stroke="white" y1="63.5782"/>
    <line  stroke-linecap="round" stroke-width="0.432" x1="23.8847" x2="22.8047" y2="58.1782" stroke="white" y1="58.1782"/>
    <line  stroke-linecap="round" stroke-width="0.432" x1="22.4447" x2="22.8047" y2="58.1782" stroke="white" y1="58.5382"/>
    <line  stroke-linecap="round" stroke-width="0.432" x1="12.3647" x2="12.0047" y2="63.9382" stroke="white" y1="63.5782"/>
    <line  stroke-linecap="round" stroke-width="0.432" x1="12.3647" x2="22.4447" y2="63.5782" stroke="white" y1="63.5782"/>
    <line  stroke-linecap="round" stroke-width="0.432" x1="12.3647" x2="12.0047" y2="58.1782" stroke="white" y1="58.5382"/>
    <line  stroke-linecap="round" stroke-width="0.432" x1="12.3647" x2="22.4447" y2="58.5382" stroke="white" y1="58.5382"/>
    <line  stroke-linecap="round" stroke-width="0.432" x1="10.9247" x2="12.0047" y2="63.9382" stroke="white" y1="63.9382"/>
    <line  stroke-linecap="round" stroke-width="0.432" x1="10.9247" x2="12.0047" y2="58.1782" stroke="white" y1="58.1782"/>
    <line  stroke-linecap="round" stroke-width="0.432" x1="10.2047" x2="10.2047" y2="63.2182" stroke="white" y1="58.8982"/>
    <g  transform="matrix(-1, 0, 0, -1, 9.6647, 61.0582)">
     <rect  height="1.44" width="1.08" stroke-width="0" y="-0.72" x="-0.54" fill="white" stroke="none"/>
    </g>
    <g  transform="matrix(-1, 0, 0, -1, 25.1447, 61.0582)">
     <rect  height="1.44" width="1.08" stroke-width="0" y="-0.72" x="-0.54" fill="white" stroke="none"/>
    </g>
   </g>
  </g>
  <line  stroke-width="0.576" fill-opacity="1" x1="188.271" x2="210.473" y2="0.288" fill="none" y1="0.288" stroke="white"/>
  <line  stroke-width="0.576" fill-opacity="1" x1="188.271" x2="188.271" y2="0.288" fill="none" y1="7.08661" stroke="white"/>
  <line  stroke-width="0.576" fill-opacity="1" x1="210.473" x2="210.473" y2="0.288" fill="none" y1="7.08661" stroke="white"/>
  <line  stroke-width="0.576" fill-opacity="1" x1="151.42" x2="173.622" y2="0.288" fill="none" y1="0.288" stroke="white"/>
  <line  stroke-width="0.576" fill-opacity="1" x1="151.42" x2="151.42" y2="0.288" fill="none" y1="7.08661" stroke="white"/>
  <line  stroke-width="0.576" fill-opacity="1" x1="173.622" x2="173.622" y2="0.288" fill="none" y1="7.08661" stroke="white"/>
  <line  stroke-width="0.576" fill-opacity="1" x1="4.01849" x2="26.2205" y2="0.288" fill="none" y1="0.288" stroke="white"/>
  <line  stroke-width="0.576" fill-opacity="1" x1="4.01849" x2="4.01849" y2="0.288" fill="none" y1="7.08661" stroke="white"/>
  <line  stroke-width="0.576" fill-opacity="1" x1="26.2205" x2="26.2205" y2="0.288" fill="none" y1="7.08661" stroke="white"/>
  <line  stroke-width="0.576" fill-opacity="1" x1="114.57" x2="136.772" y2="0.288" fill="none" y1="0.288" stroke="white"/>
  <line  stroke-width="0.576" fill-opacity="1" x1="114.57" x2="114.57" y2="0.288" fill="none" y1="7.08661" stroke="white"/>
  <line  stroke-width="0.576" fill-opacity="1" x1="136.772" x2="136.772" y2="0.288" fill="none" y1="7.08661" stroke="white"/>
  <line  stroke-width="0.576" fill-opacity="1" x1="77.719" x2="99.9216" y2="0.288" fill="none" y1="0.288" stroke="white"/>
  <line  stroke-width="0.576" fill-opacity="1" x1="77.719" x2="77.719" y2="0.288" fill="none" y1="7.08661" stroke="white"/>
  <line  stroke-width="0.576" fill-opacity="1" x1="99.9216" x2="99.9216" y2="0.288" fill="none" y1="7.08661" stroke="white"/>
  <line  stroke-width="0.576" fill-opacity="1" x1="40.8689" x2="63.0708" y2="0.288" fill="none" y1="0.288" stroke="white"/>
  <line  stroke-width="0.576" fill-opacity="1" x1="40.8689" x2="40.8689" y2="0.288" fill="none" y1="7.08661" stroke="white"/>
  <line  stroke-width="0.576" fill-opacity="1" x1="63.0708" x2="63.0708" y2="0.288" fill="none" y1="7.08661" stroke="white"/>
 </g>
 <g  id="copper1">
  <g  id="copper0">
   <circle  id="connector6pad" connectorname="3.3V" stroke-width="1.08" cx="74.0693" cy="90" r="1.98" fill="none" stroke="#F7BD13"/>
   <circle  id="connector7pad" connectorname="VREFA" stroke-width="1.08" cx="81.2693" cy="90" r="1.98" fill="none" stroke="#F7BD13"/>
   <circle  id="connector8pad" connectorname="CT12" stroke-width="1.08" cx="88.4693" cy="90" r="1.98" fill="none" stroke="#F7BD13"/>
   <circle  id="connector9pad" connectorname="CT11" stroke-width="1.08" cx="95.6693" cy="90" r="1.98" fill="none" stroke="#F7BD13"/>
   <circle  id="connector10pad" connectorname="CT10" stroke-width="1.08" cx="102.869" cy="90" r="1.98" fill="none" stroke="#F7BD13"/>
   <circle  id="connector94pad" connectorname="AGND" stroke-width="0.72" cx="138.005" cy="61.0582" r="1.512" fill="none" stroke="#F7BD13"/>
   <circle  id="connector11pad" connectorname="CT9" stroke-width="1.08" cx="110.069" cy="90" r="1.98" fill="none" stroke="#F7BD13"/>
   <circle  id="connector12pad" connectorname="CT8" stroke-width="1.08" cx="117.269" cy="90" r="1.98" fill="none" stroke="#F7BD13"/>
   <circle  id="connector13pad" connectorname="CT7" stroke-width="1.08" cx="124.469" cy="90" r="1.98" fill="none" stroke="#F7BD13"/>
   <circle  id="connector114pad" connectorname="AGND" stroke-width="0.72" cx="64.2047" cy="61.0582" r="1.512" fill="none" stroke="#F7BD13"/>
   <circle  id="connector72pad" connectorname="5" stroke-width="1.20473" cx="54.5669" cy="17.0078" r="3.01181" fill="none" stroke="#F7BD13"/>
   <circle  id="connector76pad" connectorname="AGND" stroke-width="0.72" cx="211.805" cy="61.0582" r="1.512" fill="none" stroke="#F7BD13"/>
   <circle  id="connector84pad" connectorname="AGND" stroke-width="0.72" cx="174.005" cy="61.0582" r="1.512" fill="none" stroke="#F7BD13"/>
   <circle  id="connector104pad" connectorname="AGND" stroke-width="0.72" cx="102.005" cy="61.0582" r="1.512" fill="none" stroke="#F7BD13"/>
   <circle  id="connector124pad" connectorname="AGND" stroke-width="0.72" cx="28.2047" cy="61.0582" r="1.512" fill="none" stroke="#F7BD13"/>
   <circle  id="connector73pad" connectorname="6" stroke-width="1.20473" cx="54.5669" cy="36.8504" r="3.01181" fill="none" stroke="#F7BD13"/>
   <circle  id="connector77pad" connectorname="2" stroke-width="0.72" cx="190.205" cy="61.0582" r="1.512" fill="none" stroke="#F7BD13"/>
   <circle  id="connector42pad" connectorname="5" stroke-width="1.20473" cx="201.969" cy="17.0078" r="3.01181" fill="none" stroke="#F7BD13"/>
   <circle  id="connector43pad" connectorname="6" stroke-width="1.20473" cx="201.969" cy="36.8504" r="3.01181" fill="none" stroke="#F7BD13"/>
   <circle  id="connector85pad" connectorname="2" stroke-width="0.72" cx="152.405" cy="61.0582" r="1.512" fill="none" stroke="#F7BD13"/>
   <circle  id="connector48pad" connectorname="5" stroke-width="1.20473" cx="165.118" cy="17.0078" r="3.01181" fill="none" stroke="#F7BD13"/>
   <circle  id="connector49pad" connectorname="6" stroke-width="1.20473" cx="165.118" cy="36.8504" r="3.01181" fill="none" stroke="#F7BD13"/>
   <circle  id="connector95pad" connectorname="2" stroke-width="0.72" cx="116.405" cy="61.0582" r="1.512" fill="none" stroke="#F7BD13"/>
   <circle  id="connector54pad" connectorname="5" stroke-width="1.20473" cx="17.7165" cy="17.0078" r="3.01181" fill="none" stroke="#F7BD13"/>
   <circle  id="connector105pad" connectorname="2" stroke-width="0.72" cx="80.4046" cy="61.0582" r="1.512" fill="none" stroke="#F7BD13"/>
   <circle  id="connector55pad" connectorname="6" stroke-width="1.20473" cx="17.7165" cy="36.8504" r="3.01181" fill="none" stroke="#F7BD13"/>
   <circle  id="connector115pad" connectorname="2" stroke-width="0.72" cx="42.6047" cy="61.0582" r="1.512" fill="none" stroke="#F7BD13"/>
   <circle  id="connector60pad" connectorname="5" stroke-width="1.20473" cx="128.268" cy="17.0078" r="3.01181" fill="none" stroke="#F7BD13"/>
   <circle  id="connector61pad" connectorname="6" stroke-width="1.20473" cx="128.268" cy="36.8504" r="3.01181" fill="none" stroke="#F7BD13"/>
   <circle  id="connector125pad" connectorname="2" stroke-width="0.72" cx="6.60473" cy="61.0582" r="1.512" fill="none" stroke="#F7BD13"/>
   <circle  id="connector66pad" connectorname="5" stroke-width="1.20473" cx="91.4177" cy="17.0078" r="3.01181" fill="none" stroke="#F7BD13"/>
   <circle  id="connector67pad" connectorname="6" stroke-width="1.20473" cx="91.4177" cy="36.8504" r="3.01181" fill="none" stroke="#F7BD13"/>
   <circle  id="connector5pad" connectorname="AGND" stroke-width="1.08" cx="66.8693" cy="90" r="1.98" fill="none" stroke="#F7BD13"/>
  </g>
 </g>
</svg>
