<?xml version='1.0' encoding='UTF-8' standalone='no'?>
<!-- Created with Fritzing (http://www.fritzing.org/) -->
<svg xmlns="http://www.w3.org/2000/svg"  viewBox="0 0 122.4 180" version="1.2" height="2.5in" baseProfile="tiny" width="1.7in" y="0in" x="0in">
 <desc >Fritzing schematic generated by brd2svg</desc>
 <g  id="schematic">
  <rect  stroke-linejoin="round" height="151.2" stroke-linecap="round" width="93.15" stroke-width="0.9" y="14.4" x="14.4" fill="none" stroke="#000000"/>
  <text  font-family="'Droid Sans'" id="label" text-anchor="middle" y="82.9001" x="61.2" font-size="3.5" fill="#000000" stroke="none">emonTx</text>
  <line  stroke-linejoin="round" stroke-linecap="round" stroke-width="0.699998" x1="0.349999" x2="14.4" fill="none" y2="36" stroke="#787878" y1="36"/>
  <rect  connectorName="2" id="connector282pin" height="0.699998" width="14.4" stroke-width="0" y="35.65" x="0" fill="none"/>
  <rect  id="connector282terminal" height="0.699998" width="0" stroke-width="0" y="35.65" x="0" fill="none"/>
  <text  font-family="'Droid Sans'" id="label282" text-anchor="start" y="36.7" x="15.8" font-size="3.5" fill="#8c8c8c" stroke="none">2</text>
  <line  stroke-linejoin="round" stroke-linecap="round" stroke-width="0.699998" x1="0.349999" x2="14.4" fill="none" y2="43.2" stroke="#787878" y1="43.2"/>
  <rect  connectorName="2" id="connector123pin" height="0.699998" width="14.4" stroke-width="0" y="42.85" x="0" fill="none"/>
  <rect  id="connector123terminal" height="0.699998" width="0" stroke-width="0" y="42.85" x="0" fill="none"/>
  <text  font-family="'Droid Sans'" id="label123" text-anchor="start" y="43.9" x="15.8" font-size="3.5" fill="#8c8c8c" stroke="none">2</text>
  <line  stroke-linejoin="round" stroke-linecap="round" stroke-width="0.699998" x1="0.349999" x2="14.4" fill="none" y2="50.4" stroke="#787878" y1="50.4"/>
  <rect  connectorName="2" id="connector126pin" height="0.699998" width="14.4" stroke-width="0" y="50.05" x="0" fill="none"/>
  <rect  id="connector126terminal" height="0.699998" width="0" stroke-width="0" y="50.05" x="0" fill="none"/>
  <text  font-family="'Droid Sans'" id="label126" text-anchor="start" y="51.1" x="15.8" font-size="3.5" fill="#8c8c8c" stroke="none">2</text>
  <line  stroke-linejoin="round" stroke-linecap="round" stroke-width="0.699998" x1="0.349999" x2="14.4" fill="none" y2="57.6" stroke="#787878" y1="57.6"/>
  <rect  connectorName="2" id="connector256pin" height="0.699998" width="14.4" stroke-width="0" y="57.25" x="0" fill="none"/>
  <rect  id="connector256terminal" height="0.699998" width="0" stroke-width="0" y="57.25" x="0" fill="none"/>
  <text  font-family="'Droid Sans'" id="label256" text-anchor="start" y="58.3" x="15.8" font-size="3.5" fill="#8c8c8c" stroke="none">2</text>
  <line  stroke-linejoin="round" stroke-linecap="round" stroke-width="0.699998" x1="0.349999" x2="14.4" fill="none" y2="64.8" stroke="#787878" y1="64.8"/>
  <rect  connectorName="2" id="connector260pin" height="0.699998" width="14.4" stroke-width="0" y="64.45" x="0" fill="none"/>
  <rect  id="connector260terminal" height="0.699998" width="0" stroke-width="0" y="64.45" x="0" fill="none"/>
  <text  font-family="'Droid Sans'" id="label260" text-anchor="start" y="65.5" x="15.8" font-size="3.5" fill="#8c8c8c" stroke="none">2</text>
  <line  stroke-linejoin="round" stroke-linecap="round" stroke-width="0.699998" x1="0.349999" x2="14.4" fill="none" y2="72" stroke="#787878" y1="72"/>
  <rect  connectorName="2" id="connector294pin" height="0.699998" width="14.4" stroke-width="0" y="71.65" x="0" fill="none"/>
  <rect  id="connector294terminal" height="0.699998" width="0" stroke-width="0" y="71.65" x="0" fill="none"/>
  <text  font-family="'Droid Sans'" id="label294" text-anchor="start" y="72.6998" x="15.8" font-size="3.5" fill="#8c8c8c" stroke="none">2</text>
  <line  stroke-linejoin="round" stroke-linecap="round" stroke-width="0.699998" x1="0.349999" x2="14.4" fill="none" y2="79.2" stroke="#787878" y1="79.2"/>
  <rect  connectorName="AGND" id="connector5pin" height="0.699998" width="14.4" stroke-width="0" y="78.8501" x="0" fill="none"/>
  <rect  id="connector5terminal" height="0.699998" width="0" stroke-width="0" y="78.8501" x="0" fill="none"/>
  <text  font-family="'Droid Sans'" id="label5" text-anchor="start" y="79.8998" x="15.8" font-size="3.5" fill="#8c8c8c" stroke="none">AGND</text>
  <line  stroke-linejoin="round" stroke-linecap="round" stroke-width="0.699998" x1="0.349999" x2="14.4" fill="none" y2="86.4" stroke="#787878" y1="86.4"/>
  <rect  connectorName="ANALOG_INPUT" id="connector8pin" height="0.699998" width="14.4" stroke-width="0" y="86.0501" x="0" fill="none"/>
  <rect  id="connector8terminal" height="0.699998" width="0" stroke-width="0" y="86.0501" x="0" fill="none"/>
  <text  font-family="'Droid Sans'" id="label8" text-anchor="start" y="87.0998" x="15.8" font-size="3.5" fill="#8c8c8c" stroke="none">ANALOG_INPUT</text>
  <line  stroke-linejoin="round" stroke-linecap="round" stroke-width="0.699998" x1="0.349999" x2="14.4" fill="none" y2="93.6" stroke="#787878" y1="93.6"/>
  <rect  connectorName="AVR_RX" id="connector235pin" height="0.699998" width="14.4" stroke-width="0" y="93.2501" x="0" fill="none"/>
  <rect  id="connector235terminal" height="0.699998" width="0" stroke-width="0" y="93.2501" x="0" fill="none"/>
  <text  font-family="'Droid Sans'" id="label235" text-anchor="start" y="94.2998" x="15.8" font-size="3.5" fill="#8c8c8c" stroke="none">AVR_RX</text>
  <line  stroke-linejoin="round" stroke-linecap="round" stroke-width="0.699998" x1="0.349999" x2="14.4" fill="none" y2="100.8" stroke="#787878" y1="100.8"/>
  <rect  connectorName="AVR_TX" id="connector234pin" height="0.699998" width="14.4" stroke-width="0" y="100.45" x="0" fill="none"/>
  <rect  id="connector234terminal" height="0.699998" width="0" stroke-width="0" y="100.45" x="0" fill="none"/>
  <text  font-family="'Droid Sans'" id="label234" text-anchor="start" y="101.5" x="15.8" font-size="3.5" fill="#8c8c8c" stroke="none">AVR_TX</text>
  <line  stroke-linejoin="round" stroke-linecap="round" stroke-width="0.699998" x1="107.65" x2="122.05" fill="none" y2="36" stroke="#787878" y1="36"/>
  <rect  id="connector389pin" height="0.699998" connectorname="UDPI" width="14.4" stroke-width="0" y="35.65" x="108" fill="none"/>
  <rect  id="connector389terminal" height="0.699998" width="0" stroke-width="0" y="35.65" x="122.4" fill="none"/>
  <text  font-family="'Droid Sans'" id="label389" text-anchor="end" y="36.7" x="106.6" font-size="3.5" fill="#8c8c8c" stroke="none">UDPI</text>
  <line  stroke-linejoin="round" stroke-linecap="round" stroke-width="0.699998" x1="107.65" x2="122.05" fill="none" y2="43.2" stroke="#787878" y1="43.2"/>
  <rect  id="connector353pin" height="0.699998" connectorname="RFM_SEL" width="14.4" stroke-width="0" y="42.85" x="108" fill="none"/>
  <rect  id="connector353terminal" height="0.699998" width="0" stroke-width="0" y="42.85" x="122.4" fill="none"/>
  <text  font-family="'Droid Sans'" id="label353" text-anchor="end" y="43.9" x="106.6" font-size="3.5" fill="#8c8c8c" stroke="none">RFM_SEL</text>
  <line  stroke-linejoin="round" stroke-linecap="round" stroke-width="0.699998" x1="107.65" x2="122.05" fill="none" y2="50.4" stroke="#787878" y1="50.4"/>
  <rect  id="connector354pin" height="0.699998" connectorname="RFM_SCK" width="14.4" stroke-width="0" y="50.05" x="108" fill="none"/>
  <rect  id="connector354terminal" height="0.699998" width="0" stroke-width="0" y="50.05" x="122.4" fill="none"/>
  <text  font-family="'Droid Sans'" id="label354" text-anchor="end" y="51.1" x="106.6" font-size="3.5" fill="#8c8c8c" stroke="none">RFM_SCK</text>
  <line  stroke-linejoin="round" stroke-linecap="round" stroke-width="0.699998" x1="107.65" x2="122.05" fill="none" y2="57.6" stroke="#787878" y1="57.6"/>
  <rect  id="connector356pin" height="0.699998" connectorname="RFM_MOSI" width="14.4" stroke-width="0" y="57.25" x="108" fill="none"/>
  <rect  id="connector356terminal" height="0.699998" width="0" stroke-width="0" y="57.25" x="122.4" fill="none"/>
  <text  font-family="'Droid Sans'" id="label356" text-anchor="end" y="58.3" x="106.6" font-size="3.5" fill="#8c8c8c" stroke="none">RFM_MOSI</text>
  <line  stroke-linejoin="round" stroke-linecap="round" stroke-width="0.699998" x1="107.65" x2="122.05" fill="none" y2="64.8" stroke="#787878" y1="64.8"/>
  <rect  id="connector355pin" height="0.699998" connectorname="RFM_MISO" width="14.4" stroke-width="0" y="64.45" x="108" fill="none"/>
  <rect  id="connector355terminal" height="0.699998" width="0" stroke-width="0" y="64.45" x="122.4" fill="none"/>
  <text  font-family="'Droid Sans'" id="label355" text-anchor="end" y="65.5" x="106.6" font-size="3.5" fill="#8c8c8c" stroke="none">RFM_MISO</text>
  <line  stroke-linejoin="round" stroke-linecap="round" stroke-width="0.699998" x1="107.65" x2="122.05" fill="none" y2="72" stroke="#787878" y1="72"/>
  <rect  id="connector371pin" height="0.699998" connectorname="PULSE_INPUT" width="14.4" stroke-width="0" y="71.65" x="108" fill="none"/>
  <rect  id="connector371terminal" height="0.699998" width="0" stroke-width="0" y="71.65" x="122.4" fill="none"/>
  <text  font-family="'Droid Sans'" id="label371" text-anchor="end" y="72.6998" x="106.6" font-size="3.5" fill="#8c8c8c" stroke="none">PULSE_INPUT</text>
  <line  stroke-linejoin="round" stroke-linecap="round" stroke-width="0.699998" x1="107.65" x2="122.05" fill="none" y2="79.2" stroke="#787878" y1="79.2"/>
  <rect  id="connector129pin" height="0.699998" connectorname="N$21" width="14.4" stroke-width="0" y="78.8501" x="108" fill="none"/>
  <rect  id="connector129terminal" height="0.699998" width="0" stroke-width="0" y="78.8501" x="122.4" fill="none"/>
  <text  font-family="'Droid Sans'" id="label129" text-anchor="end" y="79.8998" x="106.6" font-size="3.5" fill="#8c8c8c" stroke="none">N$21</text>
  <line  stroke-linejoin="round" stroke-linecap="round" stroke-width="0.699998" x1="107.65" x2="122.05" fill="none" y2="86.4" stroke="#787878" y1="86.4"/>
  <rect  id="connector326pin" height="0.699998" connectorname="N$2" width="14.4" stroke-width="0" y="86.0501" x="108" fill="none"/>
  <rect  id="connector326terminal" height="0.699998" width="0" stroke-width="0" y="86.0501" x="122.4" fill="none"/>
  <text  font-family="'Droid Sans'" id="label326" text-anchor="end" y="87.0998" x="106.6" font-size="3.5" fill="#8c8c8c" stroke="none">N$2</text>
  <line  stroke-linejoin="round" stroke-linecap="round" stroke-width="0.699998" x1="107.65" x2="122.05" fill="none" y2="93.6" stroke="#787878" y1="93.6"/>
  <rect  id="connector308pin" height="0.699998" connectorname="N$12" width="14.4" stroke-width="0" y="93.2501" x="108" fill="none"/>
  <rect  id="connector308terminal" height="0.699998" width="0" stroke-width="0" y="93.2501" x="122.4" fill="none"/>
  <text  font-family="'Droid Sans'" id="label308" text-anchor="end" y="94.2998" x="106.6" font-size="3.5" fill="#8c8c8c" stroke="none">N$12</text>
  <line  stroke-linejoin="round" stroke-linecap="round" stroke-width="0.699998" x1="107.65" x2="122.05" fill="none" y2="100.8" stroke="#787878" y1="100.8"/>
  <rect  id="connector233pin" height="0.699998" connectorname="DTR" width="14.4" stroke-width="0" y="100.45" x="108" fill="none"/>
  <rect  id="connector233terminal" height="0.699998" width="0" stroke-width="0" y="100.45" x="122.4" fill="none"/>
  <text  font-family="'Droid Sans'" id="label233" text-anchor="end" y="101.5" x="106.6" font-size="3.5" fill="#8c8c8c" stroke="none">DTR</text>
  <line  stroke-linejoin="round" stroke-linecap="round" stroke-width="0.699998" x1="107.65" x2="122.05" fill="none" y2="108" stroke="#787878" y1="108"/>
  <rect  id="connector351pin" height="0.699998" connectorname="DS18B20" width="14.4" stroke-width="0" y="107.65" x="108" fill="none"/>
  <rect  id="connector351terminal" height="0.699998" width="0" stroke-width="0" y="107.65" x="122.4" fill="none"/>
  <text  font-family="'Droid Sans'" id="label351" text-anchor="end" y="108.7" x="106.6" font-size="3.5" fill="#8c8c8c" stroke="none">DS18B20</text>
  <line  stroke-linejoin="round" stroke-linecap="round" stroke-width="0.699998" x1="107.65" x2="122.05" fill="none" y2="115.2" stroke="#787878" y1="115.2"/>
  <rect  id="connector407pin" height="0.699998" connectorname="DIG1" width="14.4" stroke-width="0" y="114.85" x="108" fill="none"/>
  <rect  id="connector407terminal" height="0.699998" width="0" stroke-width="0" y="114.85" x="122.4" fill="none"/>
  <text  font-family="'Droid Sans'" id="label407" text-anchor="end" y="115.9" x="106.6" font-size="3.5" fill="#8c8c8c" stroke="none">DIG1</text>
  <line  stroke-linejoin="round" stroke-linecap="round" stroke-width="0.699998" x1="107.65" x2="122.05" fill="none" y2="122.4" stroke="#787878" y1="122.4"/>
  <rect  id="connector11pin" height="0.699998" connectorname="CT9" width="14.4" stroke-width="0" y="122.05" x="108" fill="none"/>
  <rect  id="connector11terminal" height="0.699998" width="0" stroke-width="0" y="122.05" x="122.4" fill="none"/>
  <text  font-family="'Droid Sans'" id="label11" text-anchor="end" y="123.1" x="106.6" font-size="3.5" fill="#8c8c8c" stroke="none">CT9</text>
  <line  stroke-linejoin="round" stroke-linecap="round" stroke-width="0.699998" x1="107.65" x2="122.05" fill="none" y2="129.6" stroke="#787878" y1="129.6"/>
  <rect  id="connector12pin" height="0.699998" connectorname="CT8" width="14.4" stroke-width="0" y="129.25" x="108" fill="none"/>
  <rect  id="connector12terminal" height="0.699998" width="0" stroke-width="0" y="129.25" x="122.4" fill="none"/>
  <text  font-family="'Droid Sans'" id="label12" text-anchor="end" y="130.3" x="106.6" font-size="3.5" fill="#8c8c8c" stroke="none">CT8</text>
  <line  stroke-linejoin="round" stroke-linecap="round" stroke-width="0.699998" x1="107.65" x2="122.05" fill="none" y2="136.8" stroke="#787878" y1="136.8"/>
  <rect  id="connector13pin" height="0.699998" connectorname="CT7" width="14.4" stroke-width="0" y="136.45" x="108" fill="none"/>
  <rect  id="connector13terminal" height="0.699998" width="0" stroke-width="0" y="136.45" x="122.4" fill="none"/>
  <text  font-family="'Droid Sans'" id="label13" text-anchor="end" y="137.5" x="106.6" font-size="3.5" fill="#8c8c8c" stroke="none">CT7</text>
  <line  stroke-linejoin="round" stroke-linecap="round" stroke-width="0.699998" x1="107.65" x2="122.05" fill="none" y2="144" stroke="#787878" y1="144"/>
  <rect  id="connector9pin" height="0.699998" connectorname="CT11" width="14.4" stroke-width="0" y="143.65" x="108" fill="none"/>
  <rect  id="connector9terminal" height="0.699998" width="0" stroke-width="0" y="143.65" x="122.4" fill="none"/>
  <text  font-family="'Droid Sans'" id="label9" text-anchor="end" y="144.7" x="106.6" font-size="3.5" fill="#8c8c8c" stroke="none">CT11</text>
  <line  stroke-linejoin="round" stroke-linecap="round" stroke-width="0.699998" x1="107.65" x2="122.05" fill="none" y2="151.2" stroke="#787878" y1="151.2"/>
  <rect  id="connector10pin" height="0.699998" connectorname="CT10" width="14.4" stroke-width="0" y="150.85" x="108" fill="none"/>
  <rect  id="connector10terminal" height="0.699998" width="0" stroke-width="0" y="150.85" x="122.4" fill="none"/>
  <text  font-family="'Droid Sans'" id="label10" text-anchor="end" y="151.9" x="106.6" font-size="3.5" fill="#8c8c8c" stroke="none">CT10</text>
  <line  stroke-linejoin="round" stroke-linecap="round" stroke-width="0.699998" x1="36" x2="36" fill="none" y2="14.4" stroke="#787878" y1="0.349999"/>
  <rect  id="connector6pin" height="14.4" connectorname="3.3V" width="0.699998" stroke-width="0" y="0" x="35.65" fill="none"/>
  <rect  id="connector6terminal" height="0" width="0.699998" stroke-width="0" y="0" x="35.65" fill="none"/>
  <g  transform="matrix(1, 0, 0, 1, 37.4, 16)">
   <g  transform="rotate(270)">
    <text  font-family="'Droid Sans'" id="label6" text-anchor="end" y="0" x="0" font-size="3.5" fill="#8c8c8c" stroke="none">3.3V</text>
   </g>
  </g>
  <line  stroke-linejoin="round" stroke-linecap="round" stroke-width="0.699998" x1="43.2" x2="43.2" fill="none" y2="14.4" stroke="#787878" y1="0.349999"/>
  <rect  id="connector7pin" height="14.4" connectorname="VREFA" width="0.699998" stroke-width="0" y="0" x="42.85" fill="none"/>
  <rect  id="connector7terminal" height="0" width="0.699998" stroke-width="0" y="0" x="42.85" fill="none"/>
  <g  transform="matrix(1, 0, 0, 1, 44.6, 16)">
   <g  transform="rotate(270)">
    <text  font-family="'Droid Sans'" id="label7" text-anchor="end" y="0" x="0" font-size="3.5" fill="#8c8c8c" stroke="none">VREFA</text>
   </g>
  </g>
  <line  stroke-linejoin="round" stroke-linecap="round" stroke-width="0.699998" x1="50.4" x2="50.4" fill="none" y2="14.4" stroke="#787878" y1="0.349999"/>
  <rect  id="connector228pin" height="14.4" connectorname="+5V" width="0.699998" stroke-width="0" y="0" x="50.05" fill="none"/>
  <rect  id="connector228terminal" height="0" width="0.699998" stroke-width="0" y="0" x="50.05" fill="none"/>
  <g  transform="matrix(1, 0, 0, 1, 51.8, 16)">
   <g  transform="rotate(270)">
    <text  font-family="'Droid Sans'" id="label228" text-anchor="end" y="0" x="0" font-size="3.5" fill="#8c8c8c" stroke="none">+5V</text>
   </g>
  </g>
  <line  stroke-linejoin="round" stroke-linecap="round" stroke-width="0.699998" x1="57.6" x2="57.6" fill="none" y2="14.4" stroke="#787878" y1="0.349999"/>
  <rect  id="connector230pin" height="14.4" connectorname="VS3" width="0.699998" stroke-width="0" y="0" x="57.25" fill="none"/>
  <rect  id="connector230terminal" height="0" width="0.699998" stroke-width="0" y="0" x="57.25" fill="none"/>
  <g  transform="matrix(1, 0, 0, 1, 59, 16)">
   <g  transform="rotate(270)">
    <text  font-family="'Droid Sans'" id="label230" text-anchor="end" y="0" x="0" font-size="3.5" fill="#8c8c8c" stroke="none">VS3</text>
   </g>
  </g>
  <line  stroke-linejoin="round" stroke-linecap="round" stroke-width="0.699998" x1="64.8" x2="64.8" fill="none" y2="14.4" stroke="#787878" y1="0.349999"/>
  <rect  id="connector231pin" height="14.4" connectorname="VS2" width="0.699998" stroke-width="0" y="0" x="64.45" fill="none"/>
  <rect  id="connector231terminal" height="0" width="0.699998" stroke-width="0" y="0" x="64.45" fill="none"/>
  <g  transform="matrix(1, 0, 0, 1, 66.2, 16)">
   <g  transform="rotate(270)">
    <text  font-family="'Droid Sans'" id="label231" text-anchor="end" y="0" x="0" font-size="3.5" fill="#8c8c8c" stroke="none">VS2</text>
   </g>
  </g>
  <line  stroke-linejoin="round" stroke-linecap="round" stroke-width="0.699998" x1="72" x2="72" fill="none" y2="14.4" stroke="#787878" y1="0.349999"/>
  <rect  id="connector232pin" height="14.4" connectorname="VS1" width="0.699998" stroke-width="0" y="0" x="71.65" fill="none"/>
  <rect  id="connector232terminal" height="0" width="0.699998" stroke-width="0" y="0" x="71.65" fill="none"/>
  <g  transform="matrix(1, 0, 0, 1, 73.3997, 16)">
   <g  transform="rotate(270)">
    <text  font-family="'Droid Sans'" id="label232" text-anchor="end" y="0" x="0" font-size="3.5" fill="#8c8c8c" stroke="none">VS1</text>
   </g>
  </g>
  <line  stroke-linejoin="round" stroke-linecap="round" stroke-width="0.699998" x1="57.6" x2="57.6" fill="none" y2="179.65" stroke="#787878" y1="165.6"/>
  <rect  id="connector122pin" height="14.4" connectorname="GND" width="0.699998" stroke-width="0" y="165.6" x="57.25" fill="none"/>
  <rect  id="connector122terminal" height="0" width="0.699998" stroke-width="0" y="180" x="57.25" fill="none"/>
  <g  transform="matrix(1, 0, 0, 1, 59, 164)">
   <g  transform="rotate(270)">
    <text  font-family="'Droid Sans'" id="label122" text-anchor="start" y="0" x="0" font-size="3.5" fill="#8c8c8c" stroke="none">GND</text>
   </g>
  </g>
  <rect  id="connector124pin" height="14.4" connectorname="3.3V" width="0.699998" stroke-width="0" y="0" x="35.65" fill="none"/>
  <rect  id="connector124terminal" height="0" width="0.699998" stroke-width="0" y="0" x="35.65" fill="none"/>
  <rect  id="connector127pin" height="14.4" connectorname="3.3V" width="0.699998" stroke-width="0" y="0" x="35.65" fill="none"/>
  <rect  id="connector127terminal" height="0" width="0.699998" stroke-width="0" y="0" x="35.65" fill="none"/>
  <rect  id="connector130pin" height="14.4" connectorname="3.3V" width="0.699998" stroke-width="0" y="0" x="35.65" fill="none"/>
  <rect  id="connector130terminal" height="0" width="0.699998" stroke-width="0" y="0" x="35.65" fill="none"/>
  <rect  id="connector237pin" height="14.4" connectorname="3.3V" width="0.699998" stroke-width="0" y="0" x="35.65" fill="none"/>
  <rect  id="connector237terminal" height="0" width="0.699998" stroke-width="0" y="0" x="35.65" fill="none"/>
  <rect  id="connector367pin" height="14.4" connectorname="3.3V" width="0.699998" stroke-width="0" y="0" x="35.65" fill="none"/>
  <rect  id="connector367terminal" height="0" width="0.699998" stroke-width="0" y="0" x="35.65" fill="none"/>
  <rect  id="connector390pin" height="14.4" connectorname="3.3V" width="0.699998" stroke-width="0" y="0" x="35.65" fill="none"/>
  <rect  id="connector390terminal" height="0" width="0.699998" stroke-width="0" y="0" x="35.65" fill="none"/>
  <rect  id="connector125pin" height="14.4" connectorname="GND" width="0.699998" stroke-width="0" y="165.6" x="57.25" fill="none"/>
  <rect  id="connector125terminal" height="0" width="0.699998" stroke-width="0" y="180" x="57.25" fill="none"/>
  <rect  id="connector128pin" height="14.4" connectorname="GND" width="0.699998" stroke-width="0" y="165.6" x="57.25" fill="none"/>
  <rect  id="connector128terminal" height="0" width="0.699998" stroke-width="0" y="180" x="57.25" fill="none"/>
  <rect  id="connector238pin" height="14.4" connectorname="GND" width="0.699998" stroke-width="0" y="165.6" x="57.25" fill="none"/>
  <rect  id="connector238terminal" height="0" width="0.699998" stroke-width="0" y="180" x="57.25" fill="none"/>
  <rect  id="connector366pin" height="14.4" connectorname="GND" width="0.699998" stroke-width="0" y="165.6" x="57.25" fill="none"/>
  <rect  id="connector366terminal" height="0" width="0.699998" stroke-width="0" y="180" x="57.25" fill="none"/>
  <rect  id="connector368pin" height="14.4" connectorname="GND" width="0.699998" stroke-width="0" y="165.6" x="57.25" fill="none"/>
  <rect  id="connector368terminal" height="0" width="0.699998" stroke-width="0" y="180" x="57.25" fill="none"/>
  <rect  id="connector370pin" height="14.4" connectorname="GND" width="0.699998" stroke-width="0" y="165.6" x="57.25" fill="none"/>
  <rect  id="connector370terminal" height="0" width="0.699998" stroke-width="0" y="180" x="57.25" fill="none"/>
  <rect  id="connector388pin" height="14.4" connectorname="GND" width="0.699998" stroke-width="0" y="165.6" x="57.25" fill="none"/>
  <rect  id="connector388terminal" height="0" width="0.699998" stroke-width="0" y="180" x="57.25" fill="none"/>
  <rect  id="connector403pin" height="14.4" connectorname="GND" width="0.699998" stroke-width="0" y="165.6" x="57.25" fill="none"/>
  <rect  id="connector403terminal" height="0" width="0.699998" stroke-width="0" y="180" x="57.25" fill="none"/>
  <rect  id="connector404pin" height="14.4" connectorname="GND" width="0.699998" stroke-width="0" y="165.6" x="57.25" fill="none"/>
  <rect  id="connector404terminal" height="0" width="0.699998" stroke-width="0" y="180" x="57.25" fill="none"/>
  <rect  id="connector405pin" height="14.4" connectorname="GND" width="0.699998" stroke-width="0" y="165.6" x="57.25" fill="none"/>
  <rect  id="connector405terminal" height="0" width="0.699998" stroke-width="0" y="180" x="57.25" fill="none"/>
  <rect  id="connector406pin" height="14.4" connectorname="GND" width="0.699998" stroke-width="0" y="165.6" x="57.25" fill="none"/>
  <rect  id="connector406terminal" height="0" width="0.699998" stroke-width="0" y="180" x="57.25" fill="none"/>
  <rect  id="connector408pin" height="14.4" connectorname="GND" width="0.699998" stroke-width="0" y="165.6" x="57.25" fill="none"/>
  <rect  id="connector408terminal" height="0" width="0.699998" stroke-width="0" y="180" x="57.25" fill="none"/>
  <rect  id="connector409pin" height="14.4" connectorname="GND" width="0.699998" stroke-width="0" y="165.6" x="57.25" fill="none"/>
  <rect  id="connector409terminal" height="0" width="0.699998" stroke-width="0" y="180" x="57.25" fill="none"/>
  <rect  id="connector410pin" height="14.4" connectorname="GND" width="0.699998" stroke-width="0" y="165.6" x="57.25" fill="none"/>
  <rect  id="connector410terminal" height="0" width="0.699998" stroke-width="0" y="180" x="57.25" fill="none"/>
  <rect  id="connector411pin" height="14.4" connectorname="GND" width="0.699998" stroke-width="0" y="165.6" x="57.25" fill="none"/>
  <rect  id="connector411terminal" height="0" width="0.699998" stroke-width="0" y="180" x="57.25" fill="none"/>
  <rect  connectorName="AGND" id="connector325pin" height="0.699998" width="14.4" stroke-width="0" y="78.8501" x="0" fill="none"/>
  <rect  id="connector325terminal" height="0.699998" width="0" stroke-width="0" y="78.8501" x="0" fill="none"/>
  <rect  connectorName="AGND" id="connector259pin" height="0.699998" width="14.4" stroke-width="0" y="78.8501" x="0" fill="none"/>
  <rect  id="connector259terminal" height="0.699998" width="0" stroke-width="0" y="78.8501" x="0" fill="none"/>
  <rect  connectorName="AGND" id="connector307pin" height="0.699998" width="14.4" stroke-width="0" y="78.8501" x="0" fill="none"/>
  <rect  id="connector307terminal" height="0.699998" width="0" stroke-width="0" y="78.8501" x="0" fill="none"/>
  <rect  connectorName="AGND" id="connector255pin" height="0.699998" width="14.4" stroke-width="0" y="78.8501" x="0" fill="none"/>
  <rect  id="connector255terminal" height="0.699998" width="0" stroke-width="0" y="78.8501" x="0" fill="none"/>
  <rect  connectorName="AGND" id="connector293pin" height="0.699998" width="14.4" stroke-width="0" y="78.8501" x="0" fill="none"/>
  <rect  id="connector293terminal" height="0.699998" width="0" stroke-width="0" y="78.8501" x="0" fill="none"/>
  <rect  connectorName="AGND" id="connector281pin" height="0.699998" width="14.4" stroke-width="0" y="78.8501" x="0" fill="none"/>
  <rect  id="connector281terminal" height="0.699998" width="0" stroke-width="0" y="78.8501" x="0" fill="none"/>
  <rect  connectorName="AGND" id="connector227pin" height="0.699998" width="14.4" stroke-width="0" y="78.8501" x="0" fill="none"/>
  <rect  id="connector227terminal" height="0.699998" width="0" stroke-width="0" y="78.8501" x="0" fill="none"/>
  <rect  connectorName="ANALOG_INPUT" id="connector373pin" height="0.699998" width="14.4" stroke-width="0" y="86.0501" x="0" fill="none"/>
  <rect  id="connector373terminal" height="0.699998" width="0" stroke-width="0" y="86.0501" x="0" fill="none"/>
  <rect  id="connector369pin" height="0.699998" connectorname="DS18B20" width="14.4" stroke-width="0" y="107.65" x="108" fill="none"/>
  <rect  id="connector369terminal" height="0.699998" width="0" stroke-width="0" y="107.65" x="122.4" fill="none"/>
 </g>
</svg>
