<?xml version='1.0' encoding='UTF-8' standalone='no'?>
<!-- Created with Fritzing (http://www.fritzing.org/) -->
<svg xmlns="http://www.w3.org/2000/svg"  viewBox="0 0 79.2 86.4" version="1.2" height="1.2in" baseProfile="tiny" width="1.1in" y="0in" x="0in">
 <desc >Fritzing schematic generated by brd2svg</desc>
 <g  id="schematic">
  <rect  stroke-linejoin="round" height="71.55" stroke-linecap="round" width="49.95" stroke-width="0.9" y="14.4" x="14.4" fill="none" stroke="#000000"/>
  <text  font-family="'Droid Sans'" id="label" text-anchor="middle" y="36" x="39.6" font-size="3.5" fill="#000000" stroke="none">emonTx</text>
  <text  font-family="'Droid Sans'" id="label" text-anchor="middle" y="39.5" x="39.6" font-size="3.5" fill="#000000" stroke="none">V4</text>
  <text  font-family="'Droid Sans'" id="label" text-anchor="middle" y="43" x="39.6" font-size="3.5" fill="#000000" stroke="none">CT</text>
  <text  font-family="'Droid Sans'" id="label" text-anchor="middle" y="46.5" x="39.6" font-size="3.5" fill="#000000" stroke="none">Expansion</text>
  <text  font-family="'Droid Sans'" id="label" text-anchor="middle" y="50" x="39.6" font-size="3.5" fill="#000000" stroke="none">Board</text>
  <line  stroke-linejoin="round" stroke-linecap="round" stroke-width="0.699998" x1="0.349999" x2="14.4" fill="none" y2="36" stroke="#787878" y1="36"/>
  <rect  connectorName="2" id="connector77pin" height="0.699998" width="14.4" stroke-width="0" y="35.65" x="0" fill="none"/>
  <rect  id="connector77terminal" height="0.699998" width="0" stroke-width="0" y="35.65" x="0" fill="none"/>
  <text  font-family="'Droid Sans'" id="label77" text-anchor="start" y="36.7" x="15.8" font-size="3.5" fill="#8c8c8c" stroke="none">2</text>
  <line  stroke-linejoin="round" stroke-linecap="round" stroke-width="0.699998" x1="0.349999" x2="14.4" fill="none" y2="43.2" stroke="#787878" y1="43.2"/>
  <rect  connectorName="2" id="connector95pin" height="0.699998" width="14.4" stroke-width="0" y="42.85" x="0" fill="none"/>
  <rect  id="connector95terminal" height="0.699998" width="0" stroke-width="0" y="42.85" x="0" fill="none"/>
  <text  font-family="'Droid Sans'" id="label95" text-anchor="start" y="43.9" x="15.8" font-size="3.5" fill="#8c8c8c" stroke="none">2</text>
  <line  stroke-linejoin="round" stroke-linecap="round" stroke-width="0.699998" x1="0.349999" x2="14.4" fill="none" y2="50.4" stroke="#787878" y1="50.4"/>
  <rect  connectorName="2" id="connector105pin" height="0.699998" width="14.4" stroke-width="0" y="50.05" x="0" fill="none"/>
  <rect  id="connector105terminal" height="0.699998" width="0" stroke-width="0" y="50.05" x="0" fill="none"/>
  <text  font-family="'Droid Sans'" id="label105" text-anchor="start" y="51.1" x="15.8" font-size="3.5" fill="#8c8c8c" stroke="none">2</text>
  <line  stroke-linejoin="round" stroke-linecap="round" stroke-width="0.699998" x1="0.349999" x2="14.4" fill="none" y2="57.6" stroke="#787878" y1="57.6"/>
  <rect  connectorName="2" id="connector85pin" height="0.699998" width="14.4" stroke-width="0" y="57.25" x="0" fill="none"/>
  <rect  id="connector85terminal" height="0.699998" width="0" stroke-width="0" y="57.25" x="0" fill="none"/>
  <text  font-family="'Droid Sans'" id="label85" text-anchor="start" y="58.3" x="15.8" font-size="3.5" fill="#8c8c8c" stroke="none">2</text>
  <line  stroke-linejoin="round" stroke-linecap="round" stroke-width="0.699998" x1="0.349999" x2="14.4" fill="none" y2="64.8" stroke="#787878" y1="64.8"/>
  <rect  connectorName="2" id="connector115pin" height="0.699998" width="14.4" stroke-width="0" y="64.45" x="0" fill="none"/>
  <rect  id="connector115terminal" height="0.699998" width="0" stroke-width="0" y="64.45" x="0" fill="none"/>
  <text  font-family="'Droid Sans'" id="label115" text-anchor="start" y="65.5" x="15.8" font-size="3.5" fill="#8c8c8c" stroke="none">2</text>
  <line  stroke-linejoin="round" stroke-linecap="round" stroke-width="0.699998" x1="0.349999" x2="14.4" fill="none" y2="72" stroke="#787878" y1="72"/>
  <rect  connectorName="2" id="connector125pin" height="0.699998" width="14.4" stroke-width="0" y="71.65" x="0" fill="none"/>
  <rect  id="connector125terminal" height="0.699998" width="0" stroke-width="0" y="71.65" x="0" fill="none"/>
  <text  font-family="'Droid Sans'" id="label125" text-anchor="start" y="72.6998" x="15.8" font-size="3.5" fill="#8c8c8c" stroke="none">2</text>
  <line  stroke-linejoin="round" stroke-linecap="round" stroke-width="0.699998" x1="64.45" x2="78.8501" fill="none" y2="36" stroke="#787878" y1="36"/>
  <rect  id="connector11pin" height="0.699998" connectorname="CT9" width="14.4" stroke-width="0" y="35.65" x="64.8" fill="none"/>
  <rect  id="connector11terminal" height="0.699998" width="0" stroke-width="0" y="35.65" x="79.2" fill="none"/>
  <text  font-family="'Droid Sans'" id="label11" text-anchor="end" y="36.7" x="63.4" font-size="3.5" fill="#8c8c8c" stroke="none">CT9</text>
  <line  stroke-linejoin="round" stroke-linecap="round" stroke-width="0.699998" x1="64.45" x2="78.8501" fill="none" y2="43.2" stroke="#787878" y1="43.2"/>
  <rect  id="connector12pin" height="0.699998" connectorname="CT8" width="14.4" stroke-width="0" y="42.85" x="64.8" fill="none"/>
  <rect  id="connector12terminal" height="0.699998" width="0" stroke-width="0" y="42.85" x="79.2" fill="none"/>
  <text  font-family="'Droid Sans'" id="label12" text-anchor="end" y="43.9" x="63.4" font-size="3.5" fill="#8c8c8c" stroke="none">CT8</text>
  <line  stroke-linejoin="round" stroke-linecap="round" stroke-width="0.699998" x1="64.45" x2="78.8501" fill="none" y2="50.4" stroke="#787878" y1="50.4"/>
  <rect  id="connector13pin" height="0.699998" connectorname="CT7" width="14.4" stroke-width="0" y="50.05" x="64.8" fill="none"/>
  <rect  id="connector13terminal" height="0.699998" width="0" stroke-width="0" y="50.05" x="79.2" fill="none"/>
  <text  font-family="'Droid Sans'" id="label13" text-anchor="end" y="51.1" x="63.4" font-size="3.5" fill="#8c8c8c" stroke="none">CT7</text>
  <line  stroke-linejoin="round" stroke-linecap="round" stroke-width="0.699998" x1="64.45" x2="78.8501" fill="none" y2="57.6" stroke="#787878" y1="57.6"/>
  <rect  id="connector8pin" height="0.699998" connectorname="CT12" width="14.4" stroke-width="0" y="57.25" x="64.8" fill="none"/>
  <rect  id="connector8terminal" height="0.699998" width="0" stroke-width="0" y="57.25" x="79.2" fill="none"/>
  <text  font-family="'Droid Sans'" id="label8" text-anchor="end" y="58.3" x="63.4" font-size="3.5" fill="#8c8c8c" stroke="none">CT12</text>
  <line  stroke-linejoin="round" stroke-linecap="round" stroke-width="0.699998" x1="64.45" x2="78.8501" fill="none" y2="64.8" stroke="#787878" y1="64.8"/>
  <rect  id="connector9pin" height="0.699998" connectorname="CT11" width="14.4" stroke-width="0" y="64.45" x="64.8" fill="none"/>
  <rect  id="connector9terminal" height="0.699998" width="0" stroke-width="0" y="64.45" x="79.2" fill="none"/>
  <text  font-family="'Droid Sans'" id="label9" text-anchor="end" y="65.5" x="63.4" font-size="3.5" fill="#8c8c8c" stroke="none">CT11</text>
  <line  stroke-linejoin="round" stroke-linecap="round" stroke-width="0.699998" x1="64.45" x2="78.8501" fill="none" y2="72" stroke="#787878" y1="72"/>
  <rect  id="connector10pin" height="0.699998" connectorname="CT10" width="14.4" stroke-width="0" y="71.65" x="64.8" fill="none"/>
  <rect  id="connector10terminal" height="0.699998" width="0" stroke-width="0" y="71.65" x="79.2" fill="none"/>
  <text  font-family="'Droid Sans'" id="label10" text-anchor="end" y="72.6998" x="63.4" font-size="3.5" fill="#8c8c8c" stroke="none">CT10</text>
  <line  stroke-linejoin="round" stroke-linecap="round" stroke-width="0.699998" x1="64.45" x2="78.8501" fill="none" y2="79.2" stroke="#787878" y1="79.2"/>
  <rect  id="connector5pin" height="0.699998" connectorname="AGND" width="14.4" stroke-width="0" y="78.8501" x="64.8" fill="none"/>
  <rect  id="connector5terminal" height="0.699998" width="0" stroke-width="0" y="78.8501" x="79.2" fill="none"/>
  <text  font-family="'Droid Sans'" id="label5" text-anchor="end" y="79.8998" x="63.4" font-size="3.5" fill="#8c8c8c" stroke="none">AGND</text>
  <line  stroke-linejoin="round" stroke-linecap="round" stroke-width="0.699998" x1="36" x2="36" fill="none" y2="14.4" stroke="#787878" y1="0.349999"/>
  <rect  id="connector6pin" height="14.4" connectorname="3.3V" width="0.699998" stroke-width="0" y="0" x="35.65" fill="none"/>
  <rect  id="connector6terminal" height="0" width="0.699998" stroke-width="0" y="0" x="35.65" fill="none"/>
  <g  transform="matrix(1, 0, 0, 1, 37.4, 16)">
   <g  transform="rotate(270)">
    <text  font-family="'Droid Sans'" id="label6" text-anchor="end" y="0" x="0" font-size="3.5" fill="#8c8c8c" stroke="none">3.3V</text>
   </g>
  </g>
  <line  stroke-linejoin="round" stroke-linecap="round" stroke-width="0.699998" x1="43.2" x2="43.2" fill="none" y2="14.4" stroke="#787878" y1="0.349999"/>
  <rect  id="connector7pin" height="14.4" connectorname="VREFA" width="0.699998" stroke-width="0" y="0" x="42.85" fill="none"/>
  <rect  id="connector7terminal" height="0" width="0.699998" stroke-width="0" y="0" x="42.85" fill="none"/>
  <g  transform="matrix(1, 0, 0, 1, 44.6, 16)">
   <g  transform="rotate(270)">
    <text  font-family="'Droid Sans'" id="label7" text-anchor="end" y="0" x="0" font-size="3.5" fill="#8c8c8c" stroke="none">VREFA</text>
   </g>
  </g>
  <rect  id="connector114pin" height="0.699998" connectorname="AGND" width="14.4" stroke-width="0" y="78.8501" x="64.8" fill="none"/>
  <rect  id="connector114terminal" height="0.699998" width="0" stroke-width="0" y="78.8501" x="79.2" fill="none"/>
  <rect  id="connector94pin" height="0.699998" connectorname="AGND" width="14.4" stroke-width="0" y="78.8501" x="64.8" fill="none"/>
  <rect  id="connector94terminal" height="0.699998" width="0" stroke-width="0" y="78.8501" x="79.2" fill="none"/>
  <rect  id="connector104pin" height="0.699998" connectorname="AGND" width="14.4" stroke-width="0" y="78.8501" x="64.8" fill="none"/>
  <rect  id="connector104terminal" height="0.699998" width="0" stroke-width="0" y="78.8501" x="79.2" fill="none"/>
  <rect  id="connector76pin" height="0.699998" connectorname="AGND" width="14.4" stroke-width="0" y="78.8501" x="64.8" fill="none"/>
  <rect  id="connector76terminal" height="0.699998" width="0" stroke-width="0" y="78.8501" x="79.2" fill="none"/>
  <rect  id="connector84pin" height="0.699998" connectorname="AGND" width="14.4" stroke-width="0" y="78.8501" x="64.8" fill="none"/>
  <rect  id="connector84terminal" height="0.699998" width="0" stroke-width="0" y="78.8501" x="79.2" fill="none"/>
  <rect  id="connector124pin" height="0.699998" connectorname="AGND" width="14.4" stroke-width="0" y="78.8501" x="64.8" fill="none"/>
  <rect  id="connector124terminal" height="0.699998" width="0" stroke-width="0" y="78.8501" x="79.2" fill="none"/>
 </g>
</svg>
